<!-- Generator: Adobe Illustrator 18.0.0, SVG Export Plug-In  -->
<svg version="1.1"
   xmlns="http://www.w3.org/2000/svg" xmlns:xlink="http://www.w3.org/1999/xlink" xmlns:a="http://ns.adobe.com/AdobeSVGViewerExtensions/3.0/"
   x="0px" y="0px" width="800px" height="685.6px" viewBox="0 0 800 685.6" enable-background="new 0 0 800 685.6"
   xml:space="preserve">
<defs>
</defs>
<g>
  <polygon fill="#DEB237" points="400.9,685.6 475.2,557 326.6,557   "/>
</g>
<g>
  <polygon fill="#A7A9AC" points="320.9,547.1 480.8,547.1 568.1,396 233.7,396   "/>
</g>
<g>
  <path fill="#FFFFFF" d="M361.1,445.2h4.1V465h-4.1V445.2z"/>
  <path fill="#FFFFFF" d="M381.1,462c-1.3,2.4-3.4,3.4-6.2,3.4c-4.8,0-6.9-3.3-6.9-7.4c0-4.5,2.5-7.5,6.9-7.5c2.9,0,4.8,1.3,6.1,3.5
    l-3.2,1.5c-0.6-1.5-1.6-2.2-2.8-2.2c-2.2,0-3.1,1.9-3.1,4.4c0,2.2,0.7,4.7,3.3,4.7c1.5,0,2.4-0.8,3-2.2L381.1,462z"/>
  <path fill="#FFFFFF" d="M386.1,458.9c0.3,2.6,1.6,3.7,3.4,3.7c1.4,0,2.4-0.6,3.1-1.9l2.8,1.6c-1.3,2-3.4,3.1-6.1,3.1
    c-4.6,0-7.1-3.2-7.1-7.4c0-4.2,2.5-7.5,6.9-7.5c4.3,0,6.6,3.1,6.6,7.5c0,0.5,0,0.7,0,0.8H386.1z M386.1,456.7h5.7
    c0-1.8-0.8-3.4-2.8-3.4C387.3,453.3,386.3,454.6,386.1,456.7z"/>
  <path fill="#FFFFFF" d="M398.1,445.2h3.8v7.5c0.6-1.3,2-2.2,4-2.2c2.9,0,5.4,2.2,5.4,7.3c0,4.8-2.2,7.5-5.6,7.5
    c-1.7,0-3.3-0.8-4.1-2.5l-0.4,2.2h-3.1V445.2z M401.9,458c0,2.4,0.9,4.3,2.8,4.3c1.7,0,2.7-1.7,2.7-4.3c0-2.7-1-4.4-2.8-4.4
    c-1.8,0-2.7,1.7-2.7,3.9V458z"/>
  <path fill="#FFFFFF" d="M413,458c0-4.2,2.4-7.4,6.9-7.4c4.5,0,6.9,3.2,6.9,7.4c0,4.2-2.4,7.5-6.9,7.5
    C415.3,465.4,413,462.2,413,458z M422.8,458c0-2.7-1-4.5-2.9-4.5c-2,0-2.9,1.9-2.9,4.5c0,2.7,1,4.5,3,4.5
    C421.9,462.5,422.8,460.7,422.8,458z"/>
  <path fill="#FFFFFF" d="M432,457.5l-4.2-6.6h4.1l2.7,4.5l2.8-4.5h4.1l-4.2,6.6l4.9,7.4h-4.4l-3.2-5.3l-3.2,5.3h-4.4L432,457.5z"/>
  <path fill="#FFFFFF" d="M358.1,493.1c-2.2-2-3.4-4.5-3.4-7.4c0-2.8,1.2-5.6,3.4-7.5l0.6,0.5c-1.8,2-2.5,4.2-2.5,6.9
    c0,2.8,0.8,4.9,2.5,6.9L358.1,493.1z"/>
  <path fill="#FFFFFF" d="M359.9,486.1c0-0.9,0.6-1.9,2-1.9c1,0,2.5,0.7,3.5,0.7c0.6,0,0.8-0.3,0.9-0.8h1c0,1.1-0.5,1.9-1.7,1.9
    c-1.3,0-2.7-0.7-3.6-0.7c-0.6,0-1,0.3-1.1,0.9H359.9z"/>
  <path fill="#FFFFFF" d="M370.8,483c-0.5,0.5-1.1,0.8-2.1,0.8v-1c1.3,0,2-0.5,2.4-1.5h1v8.8h-1.3V483z"/>
  <path fill="#FFFFFF" d="M374.4,485.6c0-2.1,1.1-4.6,3.9-4.6c3,0,3.9,2.6,3.9,4.6c0,2-0.9,4.6-4,4.6
    C375.4,490.2,374.4,487.6,374.4,485.6z M380.8,485.6c0-1.3-0.5-3.5-2.4-3.5c-2,0-2.4,2.2-2.4,3.5c0,1.3,0.5,3.5,2.4,3.5
    C380.3,489.1,380.8,486.9,380.8,485.6z"/>
  <path fill="#FFFFFF" d="M383.6,485.6c0-2.1,1.1-4.6,3.9-4.6c3,0,3.9,2.6,3.9,4.6c0,2-0.9,4.6-4,4.6
    C384.6,490.2,383.6,487.6,383.6,485.6z M390,485.6c0-1.3-0.5-3.5-2.4-3.5c-2,0-2.4,2.2-2.4,3.5c0,1.3,0.5,3.5,2.4,3.5
    C389.5,489.1,390,486.9,390,485.6z"/>
  <path fill="#FFFFFF" d="M397.2,487.4c0.7,1,1.8,1.6,3.3,1.6c1.5,0,2.6-0.8,2.6-2.1c0-1.3-1.3-1.7-3-2.2c-1.9-0.5-3.4-1.3-3.4-3.2
    c0-1.9,1.6-3.1,3.8-3.1c1.6,0,2.9,0.5,3.9,1.6l-1,0.9c-0.7-0.8-1.7-1.3-2.9-1.3c-1.4,0-2.3,0.6-2.3,1.8s1.1,1.7,2.7,2.1
    c2.4,0.6,3.7,1.4,3.7,3.2c0,2.2-1.8,3.5-4.1,3.5c-2,0-3.4-0.7-4.3-1.9L397.2,487.4z"/>
  <path fill="#FFFFFF" d="M406.9,483h-1.3v-0.9h0.3c1.3,0,1.4-0.5,1.5-1.9l0-0.3h0.8v2.1h1.7v0.9h-1.7v4.9c0,0.9,0.2,1.3,0.9,1.3
    c0.3,0,0.6-0.1,0.8-0.2l0.1,1c-0.4,0.2-0.9,0.3-1.3,0.3c-1.5,0-1.9-0.9-1.9-2.1V483z"/>
  <path fill="#FFFFFF" d="M411,486c0-2.3,1.3-4.1,3.6-4.1c2.4,0,3.6,1.8,3.6,4.1c0,2.3-1.3,4.2-3.6,4.2
    C412.3,490.2,411,488.4,411,486z M416.9,486c0-1.8-0.8-3.1-2.2-3.1c-1.5,0-2.2,1.3-2.2,3.1c0,1.8,0.8,3.2,2.3,3.2
    C416.1,489.2,416.9,487.8,416.9,486z"/>
  <path fill="#FFFFFF" d="M420,482.1h1.2l0.1,1.8c0.4-1.2,1.5-2,2.8-2v1.4c-0.1,0-0.3,0-0.5,0c-1.1,0-2.3,0.8-2.3,2.7v4.1H420V482.1z
    "/>
  <path fill="#FFFFFF" d="M425.4,479.1h1.3v1.3h-1.3V479.1z M425.4,482.1h1.3v7.9h-1.3V482.1z"/>
  <path fill="#FFFFFF" d="M429.8,486.4c0.1,1.8,1,2.8,2.4,2.8c0.9,0,1.6-0.4,2.1-1.3l1,0.6c-0.6,1-1.6,1.8-3.2,1.8
    c-2.5,0-3.7-1.8-3.7-4.1c0-2.3,1.2-4.2,3.6-4.2c2.3,0,3.4,1.9,3.4,4c0,0.2,0,0.4,0,0.4H429.8z M429.8,485.6h4.3
    c0-1.3-0.6-2.7-2.1-2.7C430.7,482.9,429.9,483.9,429.8,485.6z"/>
  <path fill="#FFFFFF" d="M437,488.1c0.5,0.7,1.4,1.2,2.4,1.2c0.9,0,1.7-0.4,1.7-1.3c0-2-4.4-1-4.4-3.8c0-1.6,1.4-2.2,2.8-2.2
    c1.1,0,2,0.3,2.8,1l-0.7,0.9c-0.5-0.5-1.3-0.9-2.1-0.9c-0.7,0-1.4,0.3-1.4,1.1c0,1.8,4.4,0.9,4.4,3.8c0,1.6-1.4,2.4-3,2.4
    c-1.3,0-2.4-0.4-3.2-1.3L437,488.1z"/>
  <path fill="#FFFFFF" d="M443.1,492.6c1.7-2,2.5-4.3,2.5-6.9c0-2.8-0.8-4.9-2.5-6.9l0.6-0.5c2.2,1.9,3.4,4.6,3.4,7.4
    c0,2.9-1.2,5.4-3.4,7.4L443.1,492.6z"/>
</g>
<g>
  <path fill="#FFFFFF" d="M488.8,597h6.1c3.1,0,5.8,1.3,5.8,4.8c0,3.8-2.6,5.1-5.8,5.1H492v5.6h-3.2V597z M494.4,604.4
    c1.7,0,2.9-0.6,2.9-2.6c0-1.7-1.3-2.4-2.9-2.4H492v5H494.4z"/>
  <path fill="#FFFFFF" d="M502.3,601.5h2.7l0.2,2.2c0.7-1.4,1.9-2.5,3.9-2.5v3.1c-0.2,0-0.5-0.1-1-0.1c-1.3,0-2.8,0.5-2.8,3.2v5.2h-3
    V601.5z"/>
  <path fill="#FFFFFF" d="M509.7,607c0-3.3,1.9-5.9,5.4-5.9c3.5,0,5.4,2.5,5.4,5.9c0,3.3-1.9,5.9-5.4,5.9
    C511.5,612.9,509.7,610.3,509.7,607z M517.4,607c0-2.1-0.8-3.6-2.3-3.6c-1.5,0-2.3,1.5-2.3,3.6c0,2.1,0.7,3.6,2.4,3.6
    C516.7,610.6,517.4,609.1,517.4,607z"/>
  <path fill="#FFFFFF" d="M529.5,610.7c-0.6,1.3-1.6,2-3.2,2c-2.7,0-4.4-2.2-4.4-5.9c0-4,2.1-5.7,4.4-5.7c1.5,0,2.6,0.8,3,1.7V597h3
    v15.5h-2.8V610.7z M529.3,606.6c0-1.5-0.6-3-2.1-3c-1.5,0-2.2,1.3-2.2,3.3c0,2.1,0.9,3.5,2.2,3.5c1.5,0,2.1-1.5,2.1-3.3V606.6z"/>
  <path fill="#FFFFFF" d="M534.6,601.5h3v6.3c0,1.7,0.6,2.5,1.7,2.5c1.4,0,2.2-1.1,2.2-3.3v-5.5h3v11h-2.8v-1.9
    c-0.6,1.3-1.5,2.1-3.4,2.1c-2.5,0-3.7-1.5-3.7-4.3V601.5z"/>
  <path fill="#FFFFFF" d="M556.7,610.2c-1,1.8-2.7,2.7-4.8,2.7c-3.8,0-5.4-2.6-5.4-5.8c0-3.5,2-5.9,5.4-5.9c2.2,0,3.8,1,4.8,2.8
    l-2.5,1.2c-0.5-1.2-1.2-1.7-2.2-1.7c-1.7,0-2.4,1.5-2.4,3.4c0,1.7,0.6,3.7,2.6,3.7c1.2,0,1.9-0.7,2.3-1.7L556.7,610.2z"/>
  <path fill="#FFFFFF" d="M559.2,603.4h-1.8v-1.9h0.4c2,0,2.2-1.3,2.6-3.2h1.9v3.2h2.3v1.9h-2.3v5.8c0,0.9,0.2,1.4,1.2,1.4
    c0.3,0,0.7,0,1.1-0.2l0.2,2.1c-0.7,0.3-1.5,0.4-2.2,0.4c-2.5,0-3.2-1.4-3.2-3.3V603.4z"/>
  <path fill="#FFFFFF" d="M571.3,597h6.4c2.6,0,5.2,1.1,5.2,4.1c0,1.7-1.2,3.1-3,3.5c2.1,0.4,3.5,1.5,3.5,3.7c0,3.3-2.5,4.2-5.4,4.2
    h-6.8V597z M576.7,603.4c1.7,0,2.7-0.4,2.7-2c0-1.3-0.9-1.9-2.4-1.9h-2.6v3.9H576.7z M577.5,610.1c1.6,0,2.5-0.7,2.5-2.2
    c0-1.5-1.1-2.1-2.7-2.1h-2.8v4.3H577.5z"/>
  <path fill="#FFFFFF" d="M592,612.5c-0.2-0.4-0.3-1-0.3-1.6c-0.5,1.1-1.5,1.9-3.2,1.9c-2.3,0-3.6-1.5-3.6-3.5c0-2.3,1.7-3.2,4.2-3.5
    l2.4-0.4V605c0-1.3-0.7-1.6-1.7-1.6c-1.5,0-2.5,0.6-3.2,1.4l-1.4-2c0.9-0.9,2.6-1.7,5-1.7c3.1,0,4.3,1.3,4.3,4.1v4.1
    c0,1.7,0,2.2,0.4,3.1H592z M591.5,607.3l-1.9,0.4c-1.3,0.2-1.9,0.7-1.9,1.6c0,0.8,0.5,1.5,1.5,1.5c1.3,0,2.3-1,2.3-2.7V607.3z"/>
  <path fill="#FFFFFF" d="M606.6,610.2c-1,1.8-2.7,2.7-4.8,2.7c-3.8,0-5.4-2.6-5.4-5.8c0-3.5,2-5.9,5.4-5.9c2.2,0,3.8,1,4.8,2.8
    l-2.5,1.2c-0.5-1.2-1.2-1.7-2.2-1.7c-1.7,0-2.4,1.5-2.4,3.4c0,1.7,0.6,3.7,2.6,3.7c1.2,0,1.9-0.7,2.3-1.7L606.6,610.2z"/>
  <path fill="#FFFFFF" d="M608.2,597h3v9l4.2-4.5h3.7l-4.4,4.2l4.6,6.9h-3.4l-3-5l-1.6,1.5v3.5h-3V597z"/>
  <path fill="#FFFFFF" d="M620.6,597h3v15.5h-3V597z"/>
  <path fill="#FFFFFF" d="M625.5,607c0-3.3,1.9-5.9,5.4-5.9c3.5,0,5.4,2.5,5.4,5.9c0,3.3-1.9,5.9-5.4,5.9
    C627.3,612.9,625.5,610.3,625.5,607z M633.2,607c0-2.1-0.8-3.6-2.3-3.6c-1.5,0-2.3,1.5-2.3,3.6c0,2.1,0.7,3.6,2.4,3.6
    C632.5,610.6,633.2,609.1,633.2,607z"/>
  <path fill="#FFFFFF" d="M639.4,613c0.8,0.8,2.2,1.4,3.5,1.4c1.7,0,2.2-0.9,2.2-2.3v-1.4c-0.5,1-1.5,1.7-3.1,1.7
    c-2.3,0-4.3-1.6-4.3-5.4c0-3.6,1.7-5.7,4.4-5.7c1.5,0,2.6,0.7,3.2,2l0.4-1.7h2.4v10.5c0,2.6-1.4,4.7-5.1,4.7
    c-2.4,0-4.1-0.8-5.2-1.5L639.4,613z M645.1,606.7c0-1.5-0.5-3-2.1-3c-1.3,0-2.2,1.1-2.2,3.2c0,1.9,0.7,3.2,2.2,3.2
    c1.4,0,2.1-1.2,2.1-3V606.7z"/>
  <path fill="#FFFFFF" d="M491.5,640.6c-2.2-2-3.4-4.5-3.4-7.4c0-2.8,1.2-5.6,3.4-7.5l0.6,0.5c-1.8,2-2.5,4.2-2.5,6.9
    c0,2.8,0.8,4.9,2.5,6.9L491.5,640.6z"/>
  <path fill="#FFFFFF" d="M493.4,633.6c0-0.9,0.6-1.9,2-1.9c1,0,2.5,0.7,3.5,0.7c0.6,0,0.8-0.3,0.9-0.8h1c0,1.1-0.5,1.9-1.7,1.9
    c-1.3,0-2.7-0.7-3.6-0.7c-0.6,0-1,0.3-1.1,0.9H493.4z"/>
  <path fill="#FFFFFF" d="M501.9,635.5l4.9-6.8h1.4v6.8h1.4v1h-1.4v2.9h-1.3v-2.9h-5V635.5z M506.9,635.5v-5.4l-3.9,5.4H506.9z"/>
  <path fill="#FFFFFF" d="M511.1,629.3c0-1.8,1.5-2.8,3.3-2.8c1.8,0,3.3,1,3.3,2.8c0,1.1-0.8,1.9-1.9,2.3c1.4,0.4,2.3,1.4,2.3,2.8
    c0,2.1-1.6,3.4-3.7,3.4c-2,0-3.7-1.2-3.7-3.4c0-1.4,0.8-2.4,2.3-2.8C511.9,631.3,511.1,630.4,511.1,629.3z M516.8,634.3
    c0-1.2-1-2.2-2.3-2.2c-1.4,0-2.3,1.1-2.3,2.2c0,1.3,0.9,2.4,2.3,2.4S516.8,635.7,516.8,634.3z M514.5,631.2c1.1,0,2-0.8,2-1.8
    c0-1.1-0.8-1.9-2-1.9c-1.2,0-2,0.8-2,1.9C512.5,630.4,513.4,631.2,514.5,631.2z"/>
  <path fill="#FFFFFF" d="M523.7,635.6c0.5,0.7,1.4,1.2,2.4,1.2c0.9,0,1.7-0.4,1.7-1.3c0-2-4.4-1-4.4-3.8c0-1.6,1.4-2.2,2.8-2.2
    c1.1,0,2,0.3,2.8,1l-0.7,0.9c-0.5-0.5-1.3-0.9-2.1-0.9c-0.7,0-1.4,0.3-1.4,1.1c0,1.8,4.4,0.9,4.4,3.8c0,1.6-1.4,2.4-3,2.4
    c-1.3,0-2.4-0.4-3.2-1.3L523.7,635.6z"/>
  <path fill="#FFFFFF" d="M531.3,630.5h-1.3v-0.9h0.3c1.3,0,1.4-0.5,1.5-1.9l0-0.3h0.8v2.1h1.7v0.9h-1.7v4.9c0,0.9,0.2,1.3,0.9,1.3
    c0.3,0,0.6-0.1,0.8-0.2l0.1,1c-0.4,0.2-0.9,0.3-1.3,0.3c-1.5,0-1.9-0.9-1.9-2.1V630.5z"/>
  <path fill="#FFFFFF" d="M535.4,633.6c0-2.3,1.3-4.1,3.6-4.1c2.4,0,3.6,1.8,3.6,4.1c0,2.3-1.3,4.2-3.6,4.2
    C536.6,637.8,535.4,635.9,535.4,633.6z M541.2,633.6c0-1.8-0.8-3.1-2.2-3.1c-1.5,0-2.2,1.3-2.2,3.1c0,1.8,0.8,3.2,2.3,3.2
    C540.5,636.7,541.2,635.3,541.2,633.6z"/>
  <path fill="#FFFFFF" d="M544.3,629.6h1.2l0.1,1.8c0.4-1.2,1.5-2,2.8-2v1.4c-0.1,0-0.3,0-0.5,0c-1.1,0-2.3,0.8-2.3,2.7v4.1h-1.3
    V629.6z"/>
  <path fill="#FFFFFF" d="M549.7,626.6h1.3v1.3h-1.3V626.6z M549.7,629.6h1.3v7.9h-1.3V629.6z"/>
  <path fill="#FFFFFF" d="M554.1,633.9c0.1,1.8,1,2.8,2.4,2.8c0.9,0,1.6-0.4,2.1-1.3l1,0.6c-0.6,1-1.6,1.8-3.2,1.8
    c-2.5,0-3.7-1.8-3.7-4.1c0-2.3,1.2-4.2,3.6-4.2c2.3,0,3.4,1.9,3.4,4c0,0.2,0,0.4,0,0.4H554.1z M554.1,633.1h4.3
    c0-1.3-0.6-2.7-2.1-2.7C555,630.4,554.2,631.5,554.1,633.1z"/>
  <path fill="#FFFFFF" d="M561.3,635.6c0.5,0.7,1.4,1.2,2.4,1.2c0.9,0,1.7-0.4,1.7-1.3c0-2-4.4-1-4.4-3.8c0-1.6,1.4-2.2,2.8-2.2
    c1.1,0,2,0.3,2.8,1l-0.7,0.9c-0.5-0.5-1.3-0.9-2.1-0.9c-0.7,0-1.4,0.3-1.4,1.1c0,1.8,4.4,0.9,4.4,3.8c0,1.6-1.4,2.4-3,2.4
    c-1.3,0-2.4-0.4-3.2-1.3L561.3,635.6z"/>
  <path fill="#FFFFFF" d="M567.5,640.1c1.7-2,2.5-4.3,2.5-6.9c0-2.8-0.8-4.9-2.5-6.9l0.6-0.5c2.2,1.9,3.4,4.6,3.4,7.4
    c0,2.9-1.2,5.4-3.4,7.4L567.5,640.1z"/>
</g>
<g>
  <g>
    <g>
      <rect x="400.9" y="617.7" fill="#FFFFFF" width="58.5" height="2"/>
    </g>
  </g>
  <g>
    <g>
      <circle fill="#FFFFFF" cx="406" cy="618.4" r="5.9"/>
    </g>
  </g>
</g>
<g>
  <path fill="#FFFFFF" d="M284.4,361.7c0.5,0.8,1.8,1.6,3.5,1.6c1.3,0,2.2-0.6,2.2-1.5c0-1.1-1.3-1.5-3.3-2c-2.4-0.6-3.7-1.7-3.7-3.7
    c0-2.2,1.8-3.9,4.8-3.9c1.9,0,3.7,0.6,4.8,1.9l-1.7,1.6c-0.7-0.8-1.8-1.4-3.1-1.4c-1.4,0-1.9,0.6-1.9,1.4c0,0.9,0.8,1.3,2.5,1.8
    c3.3,0.9,4.4,1.9,4.4,3.9c0,2.6-2.3,4-5,4c-2.6,0-4.3-0.9-5.2-2L284.4,361.7z"/>
  <path fill="#FFFFFF" d="M294.5,352.5h5c2.5,0,4.8,1.1,4.8,3.9c0,3.1-2.1,4.2-4.8,4.2h-2.4v4.6h-2.6V352.5z M299.1,358.5
    c1.4,0,2.4-0.5,2.4-2.1c0-1.4-1.1-1.9-2.4-1.9h-1.9v4.1H299.1z"/>
  <path fill="#FFFFFF" d="M305.9,352.5h4.8c2.7,0,4.9,1,4.9,3.9c0,2.1-1.6,3-3.2,3.3c0.7,0.1,1.2,0.5,1.6,1.2l2.5,4.3h-3.1l-1.7-3.3
    c-0.6-1.1-1.1-1.4-2.1-1.4h-1.1v4.7h-2.6V352.5z M310.6,358.4c1.2,0,2.2-0.5,2.2-2c0-1.4-1.1-1.9-2.2-1.9h-2.1v3.9H310.6z"/>
  <path fill="#FFFFFF" d="M318,352.5h2.6v12.7H318V352.5z"/>
  <path fill="#FFFFFF" d="M323.1,352.5h2.9c2,3.6,3.7,6.4,4.9,9.1c-0.1-3.1-0.1-6.1-0.1-9.1h2.5v12.7h-2.9c-1.7-3.1-3.9-6.9-4.9-9.1
    c0.1,3.2,0.1,6.1,0.1,9.1h-2.5V352.5z"/>
  <path fill="#FFFFFF" d="M338.3,354.5h-3.7v-2h9.9v2h-3.7v10.7h-2.6V354.5z"/>
  <path fill="#FFFFFF" d="M349.8,352.5h5c2.5,0,4.8,1.1,4.8,3.9c0,3.1-2.1,4.2-4.8,4.2h-2.4v4.6h-2.6V352.5z M354.4,358.5
    c1.4,0,2.4-0.5,2.4-2.1c0-1.4-1.1-1.9-2.4-1.9h-1.9v4.1H354.4z"/>
  <path fill="#FFFFFF" d="M361.2,352.5h2.6v10.7h5.7v2h-8.3V352.5z"/>
  <path fill="#FFFFFF" d="M375.2,352.5h2.4l4.8,12.7h-2.8l-1-2.9H374l-1,2.9h-2.7L375.2,352.5z M377.9,360.3c-0.5-1.6-1-3-1.6-4.8
    c-0.5,1.7-1,3.2-1.6,4.8H377.9z"/>
  <path fill="#FFFFFF" d="M383.7,352.5h2.9c2,3.6,3.7,6.4,4.9,9.1c-0.1-3.1-0.1-6.1-0.1-9.1h2.5v12.7H391c-1.7-3.1-3.9-6.9-4.9-9.1
    c0.1,3.2,0.1,6.1,0.1,9.1h-2.5V352.5z"/>
  <path fill="#FFFFFF" d="M396.1,352.5h2.9c2,3.6,3.7,6.4,4.9,9.1c-0.1-3.1-0.1-6.1-0.1-9.1h2.5v12.7h-2.9c-1.7-3.1-3.9-6.9-4.9-9.1
    c0.1,3.2,0.1,6.1,0.1,9.1h-2.5V352.5z"/>
  <path fill="#FFFFFF" d="M408.7,352.5h2.6v12.7h-2.6V352.5z"/>
  <path fill="#FFFFFF" d="M413.8,352.5h2.9c2,3.6,3.7,6.4,4.9,9.1c-0.1-3.1-0.1-6.1-0.1-9.1h2.5v12.7H421c-1.7-3.1-3.9-6.9-4.9-9.1
    c0.1,3.2,0.1,6.1,0.1,9.1h-2.5V352.5z"/>
  <path fill="#FFFFFF" d="M435.4,363.5c-0.6,1.1-1.9,2-3.7,2c-4,0-6.1-2.9-6.1-6.7c0-3.9,2.3-6.6,6.2-6.6c2.3,0,4.3,0.9,5.5,2.8
    l-2.5,1.2c-0.5-1.2-1.7-1.8-3-1.8c-2.3,0-3.4,1.9-3.4,4.3s1.2,4.4,3.3,4.4c2.2,0,3.1-1.6,3.1-2.7v-0.3h-2.7v-2h5.2v7h-1.6
    L435.4,363.5z"/>
  <path fill="#FFFFFF" d="M443.7,352.5h3.1c1.1,2.6,2.6,6.4,3.1,8c0.5-1.6,2-5.3,3.1-8h3v12.7h-2.5c0-3.1,0-7.1,0.1-9
    c-0.7,2-2.4,5.9-3.6,9h-0.2c-1.3-3.2-3-7.2-3.7-9c0.1,1.9,0.1,6,0.1,9h-2.5V352.5z"/>
  <path fill="#FFFFFF" d="M458.2,352.5h8.5v2h-5.8v3h4.2v2h-4.2v3.7h6v2h-8.7V352.5z"/>
  <path fill="#FFFFFF" d="M468.6,352.5h8.5v2h-5.8v3h4.2v2h-4.2v3.7h6v2h-8.7V352.5z"/>
  <path fill="#FFFFFF" d="M482,354.5h-3.7v-2h9.9v2h-3.7v10.7H482V354.5z"/>
  <path fill="#FFFFFF" d="M489.8,352.5h2.6v12.7h-2.6V352.5z"/>
  <path fill="#FFFFFF" d="M494.9,352.5h2.9c2,3.6,3.7,6.4,4.9,9.1c-0.1-3.1-0.1-6.1-0.1-9.1h2.5v12.7h-2.9c-1.7-3.1-3.9-6.9-4.9-9.1
    c0.1,3.2,0.1,6.1,0.1,9.1h-2.5V352.5z"/>
  <path fill="#FFFFFF" d="M516.5,363.5c-0.6,1.1-1.9,2-3.7,2c-4,0-6.1-2.9-6.1-6.7c0-3.9,2.3-6.6,6.2-6.6c2.3,0,4.3,0.9,5.5,2.8
    l-2.5,1.2c-0.5-1.2-1.7-1.8-3-1.8c-2.3,0-3.4,1.9-3.4,4.3s1.2,4.4,3.3,4.4c2.2,0,3.1-1.6,3.1-2.7v-0.3h-2.7v-2h5.2v7h-1.6
    L516.5,363.5z"/>
</g>
<g>
  <path fill="#FFFFFF" d="M597.9,386.3h-0.1v-1h0.1V386.3z M597.6,386.3h-4v-1h4V386.3z M593.5,386.3h-0.2v-1h0.2V386.3z
     M589.2,386.3h-0.1v-1h0.1V386.3z M588.9,386.3h-4v-1h4V386.3z M584.8,386.3h-0.2v-1h0.2V386.3z M580.5,386.3l-0.1-1h0.1V386.3z
     M580.2,386.3h-4v-1h4V386.3z M576.1,386.3h-0.2v-1h0.2V386.3z M571.8,386.3h-0.1v-1h0.1V386.3z M571.5,386.3h-4v-1h4V386.3z
     M567.4,386.3h-0.2v-1h0.2V386.3z M563.1,386.3H563v-1h0.1V386.3z M562.8,386.3h-4v-1h4V386.3z M558.7,386.3h-0.2v-1h0.2V386.3z
     M554.4,386.3h-0.1v-1h0.1V386.3z M554.1,386.3h-4v-1h4V386.3z M550,386.3h-0.2v-1h0.2V386.3z M545.7,386.3h-0.1v-1h0.1V386.3z
     M545.4,386.3h-4v-1h4V386.3z M541.3,386.3H541v-1h0.2V386.3z M537,386.3l-0.1-1h0.1V386.3z M536.7,386.3h-4v-1h4V386.3z
     M532.6,386.3h-0.2v-1h0.2V386.3z M528.3,386.3h-0.1v-1h0.1V386.3z M528,386.3h-4v-1h4V386.3z M523.9,386.3h-0.2v-1h0.2V386.3z
     M519.6,386.3h-0.1v-1h0.1V386.3z M519.3,386.3h-4v-1h4V386.3z M515.2,386.3h-0.2v-1h0.2V386.3z M510.9,386.3h-0.1v-1h0.1V386.3z
     M510.6,386.3h-4v-1h4V386.3z M506.5,386.3h-0.2v-1h0.2V386.3z M502.2,386.3h-0.1v-1h0.1V386.3z M501.9,386.3h-4v-1h4V386.3z
     M497.8,386.3h-0.2v-1h0.2V386.3z M493.5,386.3h-0.1v-1h0.1V386.3z M493.2,386.3h-4v-1h4V386.3z M489.1,386.3h-0.2v-1h0.2V386.3z
     M484.8,386.3h-0.1v-1h0.1V386.3z M484.5,386.3h-4v-1h4V386.3z M480.4,386.3h-0.2v-1h0.2V386.3z M476.1,386.3l-0.1-1h0.1V386.3z
     M475.8,386.3h-4v-1h4V386.3z M471.7,386.3h-0.2v-1h0.2V386.3z M467.4,386.3h-0.1v-1h0.1V386.3z M467.1,386.3h-4v-1h4V386.3z
     M463,386.3h-0.2v-1h0.2V386.3z M458.7,386.3h-0.1v-1h0.1V386.3z M458.4,386.3h-4v-1h4V386.3z M454.3,386.3H454v-1h0.2V386.3z
     M450,386.3h-0.1v-1h0.1V386.3z M449.7,386.3h-4v-1h4V386.3z M445.6,386.3h-0.2v-1h0.2V386.3z M441.3,386.3h-0.1v-1h0.1V386.3z
     M441,386.3h-4v-1h4V386.3z M436.9,386.3h-0.2v-1h0.2V386.3z M432.6,386.3l-0.1-1h0.1V386.3z M432.3,386.3h-4v-1h4V386.3z
     M428.2,386.3h-0.2v-1h0.2V386.3z M423.9,386.3h-0.1v-1h0.1V386.3z M423.6,386.3h-4v-1h4V386.3z M419.5,386.3h-0.2v-1h0.2V386.3z
     M415.2,386.3h-0.1v-1h0.1V386.3z M414.9,386.3h-4v-1h4V386.3z M410.8,386.3h-0.2v-1h0.2V386.3z M406.5,386.3h-0.1v-1h0.1V386.3z
     M406.2,386.3h-4v-1h4V386.3z M402.1,386.3h-0.2v-1h0.2V386.3z M397.8,386.3h-0.1v-1h0.1V386.3z M397.5,386.3h-4v-1h4V386.3z
     M393.4,386.3h-0.2v-1h0.2V386.3z M389.1,386.3l-0.1-1h0.1V386.3z M388.8,386.3h-4v-1h4V386.3z M384.7,386.3h-0.2v-1h0.2V386.3z
     M380.4,386.3h-0.1v-1h0.1V386.3z M380.1,386.3h-4v-1h4V386.3z M376,386.3h-0.2v-1h0.2V386.3z M371.7,386.3h-0.1v-1h0.1V386.3z
     M371.4,386.3h-4v-1h4V386.3z M367.3,386.3H367v-1h0.2V386.3z M363,386.3h-0.1v-1h0.1V386.3z M362.7,386.3h-4v-1h4V386.3z
     M358.6,386.3h-0.2v-1h0.2V386.3z M354.3,386.3h-0.1v-1h0.1V386.3z M354,386.3h-4v-1h4V386.3z M349.9,386.3h-0.2v-1h0.2V386.3z
     M345.6,386.3l-0.1-1h0.1V386.3z M345.3,386.3h-4v-1h4V386.3z M341.2,386.3h-0.2v-1h0.2V386.3z M336.9,386.3h-0.1v-1h0.1V386.3z
     M336.6,386.3h-4v-1h4V386.3z M332.5,386.3h-0.2v-1h0.2V386.3z M328.2,386.3h-0.1v-1h0.1V386.3z M327.9,386.3h-4v-1h4V386.3z
     M323.8,386.3h-0.2v-1h0.2V386.3z M319.5,386.3h-0.1v-1h0.1V386.3z M319.2,386.3h-4v-1h4V386.3z M315.1,386.3h-0.2v-1h0.2V386.3z
     M310.8,386.3h-0.1v-1h0.1V386.3z M310.5,386.3h-4v-1h4V386.3z M306.4,386.3h-0.2v-1h0.2V386.3z M302.1,386.3l-0.1-1h0.1V386.3z
     M301.8,386.3h-4v-1h4V386.3z M297.7,386.3h-0.2v-1h0.2V386.3z M293.4,386.3h-0.1v-1h0.1V386.3z M293.1,386.3h-4v-1h4V386.3z
     M289,386.3h-0.2v-1h0.2V386.3z M284.7,386.3h-0.1v-1h0.1V386.3z M284.4,386.3h-4v-1h4V386.3z M280.3,386.3H280v-1h0.2V386.3z
     M276,386.3h-0.1v-1h0.1V386.3z M275.7,386.3h-4v-1h4V386.3z M271.6,386.3h-0.2v-1h0.2V386.3z M267.3,386.3h-0.1v-1h0.1V386.3z
     M267,386.3h-4v-1h4V386.3z M262.9,386.3h-0.2v-1h0.2V386.3z M258.6,386.3l-0.1-1h0.1V386.3z M258.3,386.3h-4v-1h4V386.3z
     M254.2,386.3h-0.2v-1h0.2V386.3z M249.9,386.3h-0.1v-1h0.1V386.3z M249.6,386.3h-4v-1h4V386.3z M245.5,386.3h-0.2v-1h0.2V386.3z
     M241.2,386.3h-0.1v-1h0.1V386.3z M240.9,386.3h-4v-1h4V386.3z M236.8,386.3h-0.2v-1h0.2V386.3z M232.5,386.3h-0.1v-1h0.1V386.3z
     M232.2,386.3h-4v-1h4V386.3z M228.1,386.3h-0.2v-1h0.2V386.3z M223.8,386.3h-0.1v-1h0.1V386.3z M223.5,386.3h-4v-1h4V386.3z
     M219.4,386.3h-0.2v-1h0.2V386.3z M215.1,386.3l-0.1-1h0.1V386.3z M214.8,386.3h-4v-1h4V386.3z M210.7,386.3h-0.2v-1h0.2V386.3z
     M206.4,386.3h-0.1v-1h0.1V386.3z"/>
</g>
<g>
  <path fill="#FFFFFF" d="M636.9,333.2h-0.1v-1h0.1V333.2z M636.6,333.2h-4v-1h4V333.2z M632.5,333.2h-0.2v-1h0.2V333.2z
     M628.2,333.2l-0.1-1h0.1V333.2z M627.9,333.2h-4v-1h4V333.2z M623.8,333.2h-0.2v-1h0.2V333.2z M619.5,333.2h-0.1v-1h0.1V333.2z
     M619.2,333.2h-4v-1h4V333.2z M615.1,333.2h-0.2v-1h0.2V333.2z M610.8,333.2h-0.1v-1h0.1V333.2z M610.5,333.2h-4v-1h4V333.2z
     M606.4,333.2h-0.2v-1h0.2V333.2z M602.1,333.2H602v-1h0.1V333.2z M601.8,333.2h-4v-1h4V333.2z M597.7,333.2h-0.2v-1h0.2V333.2z
     M593.4,333.2h-0.1v-1h0.1V333.2z M593.1,333.2h-4v-1h4V333.2z M589,333.2h-0.2v-1h0.2V333.2z M584.7,333.2l-0.1-1h0.1V333.2z
     M584.4,333.2h-4v-1h4V333.2z M580.3,333.2H580v-1h0.2V333.2z M576,333.2h-0.1v-1h0.1V333.2z M575.7,333.2h-4v-1h4V333.2z
     M571.6,333.2h-0.2v-1h0.2V333.2z M567.3,333.2l-0.1-1h0.1V333.2z M567,333.2h-4v-1h4V333.2z M562.9,333.2h-0.2v-1h0.2V333.2z
     M558.6,333.2h-0.1v-1h0.1V333.2z M558.3,333.2h-4v-1h4V333.2z M554.2,333.2h-0.2v-1h0.2V333.2z M549.9,333.2h-0.1v-1h0.1V333.2z
     M549.6,333.2h-4v-1h4V333.2z M545.5,333.2h-0.2v-1h0.2V333.2z M541.2,333.2h-0.1v-1h0.1V333.2z M540.9,333.2h-4v-1h4V333.2z
     M536.8,333.2h-0.2v-1h0.2V333.2z M532.5,333.2h-0.1v-1h0.1V333.2z M532.2,333.2h-4v-1h4V333.2z M528.1,333.2h-0.2v-1h0.2V333.2z
     M523.8,333.2l-0.1-1h0.1V333.2z M523.5,333.2h-4v-1h4V333.2z M519.4,333.2h-0.2v-1h0.2V333.2z M515.1,333.2H515v-1h0.1V333.2z
     M514.8,333.2h-4v-1h4V333.2z M510.7,333.2h-0.2v-1h0.2V333.2z M506.4,333.2h-0.1v-1h0.1V333.2z M506.1,333.2h-4v-1h4V333.2z
     M502,333.2h-0.2v-1h0.2V333.2z M497.7,333.2h-0.1v-1h0.1V333.2z M497.4,333.2h-4v-1h4V333.2z M493.3,333.2H493v-1h0.2V333.2z
     M489,333.2h-0.1v-1h0.1V333.2z M488.7,333.2h-4v-1h4V333.2z M484.6,333.2h-0.2v-1h0.2V333.2z M480.3,333.2h-0.1v-1h0.1V333.2z
     M480,333.2h-4v-1h4V333.2z M475.9,333.2h-0.2v-1h0.2V333.2z M471.6,333.2h-0.1v-1h0.1V333.2z M471.3,333.2h-4v-1h4V333.2z
     M467.2,333.2h-0.2v-1h0.2V333.2z M462.9,333.2l-0.1-1h0.1V333.2z M462.6,333.2h-4v-1h4V333.2z M458.5,333.2h-0.2v-1h0.2V333.2z
     M454.2,333.2h-0.1v-1h0.1V333.2z M453.9,333.2h-4v-1h4V333.2z M449.8,333.2h-0.2v-1h0.2V333.2z M445.5,333.2l-0.1-1h0.1V333.2z
     M445.2,333.2h-4v-1h4V333.2z M441.1,333.2h-0.2v-1h0.2V333.2z M436.8,333.2h-0.1v-1h0.1V333.2z M436.5,333.2h-4v-1h4V333.2z
     M432.4,333.2h-0.2v-1h0.2V333.2z M428.1,333.2H428v-1h0.1V333.2z M427.8,333.2h-4v-1h4V333.2z M423.7,333.2h-0.2v-1h0.2V333.2z
     M419.4,333.2h-0.1v-1h0.1V333.2z M419.1,333.2h-4v-1h4V333.2z M415,333.2h-0.2v-1h0.2V333.2z M410.7,333.2h-0.1v-1h0.1V333.2z
     M410.4,333.2h-4v-1h4V333.2z M406.3,333.2H406v-1h0.2V333.2z M402,333.2l-0.1-1h0.1V333.2z M401.7,333.2h-4v-1h4V333.2z
     M397.6,333.2h-0.2v-1h0.2V333.2z M393.3,333.2h-0.1v-1h0.1V333.2z M393,333.2h-4v-1h4V333.2z M388.9,333.2h-0.2v-1h0.2V333.2z
     M384.6,333.2h-0.1v-1h0.1V333.2z M384.3,333.2h-4v-1h4V333.2z M380.2,333.2h-0.2v-1h0.2V333.2z M375.9,333.2h-0.1v-1h0.1V333.2z
     M375.6,333.2h-4v-1h4V333.2z M371.5,333.2h-0.2v-1h0.2V333.2z M367.2,333.2h-0.1v-1h0.1V333.2z M366.9,333.2h-4v-1h4V333.2z
     M362.8,333.2h-0.2v-1h0.2V333.2z M358.5,333.2h-0.1v-1h0.1V333.2z M358.2,333.2h-4v-1h4V333.2z M354.1,333.2h-0.2v-1h0.2V333.2z
     M349.8,333.2h-0.1v-1h0.1V333.2z M349.5,333.2h-4v-1h4V333.2z M345.4,333.2h-0.2v-1h0.2V333.2z M341.1,333.2H341v-1h0.1V333.2z
     M340.8,333.2h-4v-1h4V333.2z M336.7,333.2h-0.2v-1h0.2V333.2z M332.4,333.2l-0.1-1h0.1V333.2z M332.1,333.2h-4v-1h4V333.2z
     M328,333.2h-0.2v-1h0.2V333.2z M323.7,333.2h-0.1v-1h0.1V333.2z M323.4,333.2h-4v-1h4V333.2z M319.3,333.2H319v-1h0.2V333.2z
     M315,333.2h-0.1v-1h0.1V333.2z M314.7,333.2h-4v-1h4V333.2z M310.6,333.2h-0.2v-1h0.2V333.2z M306.3,333.2l-0.1-1h0.1V333.2z
     M306,333.2h-4v-1h4V333.2z M301.9,333.2h-0.2v-1h0.2V333.2z M297.6,333.2h-0.1v-1h0.1V333.2z M297.3,333.2h-4v-1h4V333.2z
     M293.2,333.2h-0.2v-1h0.2V333.2z M288.9,333.2h-0.1v-1h0.1V333.2z M288.6,333.2h-4v-1h4V333.2z M284.5,333.2h-0.2v-1h0.2V333.2z
     M280.2,333.2h-0.1v-1h0.1V333.2z M279.9,333.2h-4v-1h4V333.2z M275.8,333.2h-0.2v-1h0.2V333.2z M271.5,333.2h-0.1v-1h0.1V333.2z
     M271.2,333.2h-4v-1h4V333.2z M267.1,333.2h-0.2v-1h0.2V333.2z M262.8,333.2l-0.1-1h0.1V333.2z M262.5,333.2h-4v-1h4V333.2z
     M258.4,333.2h-0.2v-1h0.2V333.2z M254.1,333.2H254v-1h0.1V333.2z M253.8,333.2h-4v-1h4V333.2z M249.7,333.2h-0.2v-1h0.2V333.2z
     M245.4,333.2h-0.1v-1h0.1V333.2z M245.1,333.2h-4v-1h4V333.2z M241,333.2h-0.2v-1h0.2V333.2z M236.7,333.2h-0.1v-1h0.1V333.2z
     M236.4,333.2h-4v-1h4V333.2z M232.3,333.2H232v-1h0.2V333.2z M228,333.2h-0.1v-1h0.1V333.2z M227.7,333.2h-4v-1h4V333.2z
     M223.6,333.2h-0.2v-1h0.2V333.2z M219.3,333.2l-0.1-1h0.1V333.2z M219,333.2h-4v-1h4V333.2z M214.9,333.2h-0.2v-1h0.2V333.2z
     M210.6,333.2h-0.1v-1h0.1V333.2z M210.3,333.2h-4v-1h4V333.2z M206.2,333.2h-0.2v-1h0.2V333.2z M201.9,333.2h-0.1v-1h0.1V333.2z
     M201.6,333.2h-4v-1h4V333.2z M197.5,333.2h-0.2v-1h0.2V333.2z M193.2,333.2h-0.1v-1h0.1V333.2z M192.9,333.2h-4v-1h4V333.2z
     M188.8,333.2h-0.2v-1h0.2V333.2z M184.5,333.2h-0.1v-1h0.1V333.2z M184.2,333.2h-4v-1h4V333.2z M180.1,333.2h-0.2v-1h0.2V333.2z
     M175.8,333.2l-0.1-1h0.1V333.2z M175.5,333.2h-4v-1h4V333.2z M171.4,333.2h-0.2v-1h0.2V333.2z M167.1,333.2H167v-1h0.1V333.2z"/>
</g>
<g>
  <polygon fill="#414042" points="0,0 187.2,324.2 612.8,324.2 800,0   "/>
</g>
<g>
  <path fill="#FFFFFF" d="M295.7,125.8h9.7c4.9,0,9.3,2.1,9.3,7.6c0,6.1-4.1,8.2-9.2,8.2h-4.6v8.9h-5.1V125.8z M304.6,137.6
    c2.7,0,4.6-0.9,4.6-4.1c0-2.8-2.1-3.7-4.6-3.7h-3.7v7.9H304.6z"/>
  <path fill="#FFFFFF" d="M317.2,133h4.2l0.4,3.5c1.1-2.3,3-4,6.2-4v4.9c-0.4-0.1-0.9-0.1-1.5-0.1c-2,0-4.4,0.8-4.4,5.1v8.3h-4.8V133
    z"/>
  <path fill="#FFFFFF" d="M329,141.7c0-5.3,3-9.3,8.6-9.3c5.6,0,8.6,4,8.6,9.3c0,5.3-3,9.3-8.6,9.3C331.8,151.1,329,147,329,141.7z
     M341.2,141.7c0-3.3-1.2-5.7-3.6-5.7c-2.5,0-3.6,2.3-3.6,5.7c0,3.4,1.2,5.7,3.7,5.7C340,147.4,341.2,145.1,341.2,141.7z"/>
  <path fill="#FFFFFF" d="M360.4,147.7c-0.9,2-2.6,3.2-5,3.2c-4.2,0-7-3.5-7-9.3c0-6.4,3.4-9.1,7-9.1c2.5,0,4.1,1.2,4.8,2.7v-9.3h4.8
    v24.7h-4.5V147.7z M360.1,141.1c0-2.4-1-4.8-3.4-4.8c-2.3,0-3.4,2.1-3.4,5.2c0,3.4,1.4,5.6,3.5,5.6c2.3,0,3.3-2.4,3.3-5.3V141.1z"
    />
  <path fill="#FFFFFF" d="M368.6,133h4.8v10c0,2.6,0.9,3.9,2.8,3.9c2.2,0,3.5-1.8,3.5-5.2V133h4.8v17.6H380v-3
    c-0.9,2-2.4,3.4-5.4,3.4c-4,0-6-2.5-6-6.9V133z"/>
  <path fill="#FFFFFF" d="M403.8,146.8c-1.6,2.9-4.3,4.3-7.7,4.3c-6,0-8.6-4.1-8.6-9.3c0-5.6,3.1-9.4,8.6-9.4c3.6,0,6,1.6,7.6,4.4
    l-4,1.9c-0.7-1.9-2-2.7-3.5-2.7c-2.7,0-3.9,2.3-3.9,5.5c0,2.7,0.9,5.9,4.1,5.9c1.9,0,3-1.1,3.7-2.8L403.8,146.8z"/>
  <path fill="#FFFFFF" d="M407.7,136h-2.9V133h0.6c3.2,0,3.5-2.1,4.1-5h3v5h3.7v3.1h-3.7v9.2c0,1.4,0.4,2.2,1.9,2.2
    c0.5,0,1-0.1,1.7-0.4l0.4,3.4c-1.2,0.5-2.3,0.7-3.6,0.7c-4,0-5-2.2-5-5.2V136z"/>
  <path fill="#FFFFFF" d="M427.2,125.8h5.1v24.7h-5.1V125.8z"/>
  <path fill="#FFFFFF" d="M447.9,147.7c-0.9,2-2.6,3.2-5,3.2c-4.2,0-7-3.5-7-9.3c0-6.4,3.4-9.1,7-9.1c2.5,0,4.1,1.2,4.8,2.7v-9.3h4.8
    v24.7h-4.5V147.7z M447.6,141.1c0-2.4-1-4.8-3.4-4.8c-2.3,0-3.4,2.1-3.4,5.2c0,3.4,1.4,5.6,3.5,5.6c2.3,0,3.3-2.4,3.3-5.3V141.1z"
    />
  <path fill="#FFFFFF" d="M460.3,142.9c0.4,3.3,2,4.7,4.3,4.7c1.7,0,2.9-0.8,3.8-2.3l3.5,2c-1.6,2.6-4.3,3.9-7.6,3.9
    c-5.8,0-8.9-4.1-8.9-9.3c0-5.3,3.1-9.4,8.6-9.4c5.3,0,8.2,3.9,8.2,9.4c0,0.6,0,0.9,0,1H460.3z M460.3,140.1h7.1
    c0-2.2-1.1-4.2-3.5-4.2C461.8,135.9,460.6,137.5,460.3,140.1z"/>
  <path fill="#FFFFFF" d="M485.8,150.5c-0.3-0.6-0.5-1.6-0.5-2.5c-0.7,1.7-2.5,3-5.1,3c-3.6,0-5.7-2.3-5.7-5.6c0-3.6,2.7-5,6.7-5.6
    l3.9-0.6v-0.7c0-2.1-1.1-2.5-2.7-2.5c-2.3,0-3.9,1-5.1,2.2l-2.3-3.2c1.4-1.4,4.1-2.7,8-2.7c4.9,0,6.9,2.1,6.9,6.5v6.6
    c0,2.7,0.1,3.6,0.7,5H485.8z M484.9,142.3l-3,0.6c-2.1,0.4-3,1.1-3,2.5c0,1.3,0.9,2.4,2.4,2.4c2,0,3.6-1.6,3.6-4.3V142.3z"/>
  <path fill="#FFFFFF" d="M494.8,145.2c1.1,1.2,3.2,2.3,5.3,2.3c1.3,0,2.6-0.5,2.6-1.7c0-3.3-9.5-1.4-9.5-7.9c0-3.8,3.4-5.5,7-5.5
    c2.9,0,5.2,0.8,7,2.1l-2.2,3.1c-0.9-0.9-3-1.8-4.9-1.8c-1.1,0-2,0.4-2,1.5c0,3,9.5,1.6,9.5,7.9c0,3.9-3.7,5.8-7.2,5.8
    c-3.2,0-5.8-0.9-7.7-2.6L494.8,145.2z"/>
  <path fill="#FFFFFF" d="M367.4,183.7c-2.2-2-3.4-4.5-3.4-7.4c0-2.8,1.2-5.6,3.4-7.5l0.6,0.5c-1.8,2-2.5,4.2-2.5,6.9
    c0,2.8,0.8,4.9,2.5,6.9L367.4,183.7z"/>
  <path fill="#FFFFFF" d="M379.1,173.6c1.5,0,2.6,0.9,2.6,2.6c0,1.7-1.2,2.7-2.6,2.7c-1.4,0-2.6-1.1-3.5-2c-0.9,0.9-2,2-3.5,2
    c-1.2,0-2.6-0.8-2.6-2.7c0-1.9,1.4-2.6,2.6-2.6c1.5,0,2.6,1,3.5,1.9C376.6,174.6,377.6,173.6,379.1,173.6z M372.2,174.6
    c-1.1,0-1.6,0.7-1.6,1.6c0,0.9,0.5,1.7,1.7,1.7c1,0,2-0.9,2.7-1.7C374.3,175.6,373.3,174.6,372.2,174.6z M379.1,177.9
    c1,0,1.6-0.7,1.6-1.7c0-1-0.6-1.6-1.6-1.6s-1.9,0.8-2.7,1.6C377.3,177.2,378.1,177.9,379.1,177.9z"/>
  <path fill="#FFFFFF" d="M387.9,177.9c0.7,1,1.8,1.6,3.3,1.6c1.5,0,2.6-0.8,2.6-2.1c0-1.3-1.3-1.7-3-2.2c-1.9-0.5-3.4-1.3-3.4-3.2
    c0-1.9,1.6-3.1,3.8-3.1c1.6,0,2.9,0.5,3.9,1.6l-1,0.9c-0.7-0.8-1.7-1.3-2.9-1.3c-1.4,0-2.3,0.6-2.3,1.8s1.1,1.7,2.7,2.1
    c2.4,0.6,3.7,1.4,3.7,3.2c0,2.2-1.8,3.5-4.1,3.5c-2,0-3.4-0.7-4.3-1.9L387.9,177.9z"/>
  <path fill="#FFFFFF" d="M397.7,173.6h-1.3v-0.9h0.3c1.3,0,1.4-0.5,1.5-1.9l0-0.3h0.8v2.1h1.7v0.9H399v4.9c0,0.9,0.2,1.3,0.9,1.3
    c0.3,0,0.6-0.1,0.8-0.2l0.1,1c-0.4,0.2-0.9,0.3-1.3,0.3c-1.5,0-1.9-0.9-1.9-2.1V173.6z"/>
  <path fill="#FFFFFF" d="M401.8,176.6c0-2.3,1.3-4.1,3.6-4.1c2.4,0,3.6,1.8,3.6,4.1c0,2.3-1.3,4.2-3.6,4.2
    C403,180.8,401.8,178.9,401.8,176.6z M407.6,176.6c0-1.8-0.8-3.1-2.2-3.1c-1.5,0-2.2,1.3-2.2,3.1s0.8,3.2,2.3,3.2
    C406.9,179.7,407.6,178.4,407.6,176.6z"/>
  <path fill="#FFFFFF" d="M410.7,172.7h1.2l0.1,1.8c0.4-1.2,1.5-2,2.8-2v1.4c-0.1,0-0.3,0-0.5,0c-1.1,0-2.3,0.8-2.3,2.7v4.1h-1.3
    V172.7z"/>
  <path fill="#FFFFFF" d="M416.1,169.6h1.3v1.3h-1.3V169.6z M416.1,172.7h1.3v7.9h-1.3V172.7z"/>
  <path fill="#FFFFFF" d="M420.5,176.9c0.1,1.8,1,2.8,2.4,2.8c0.9,0,1.6-0.4,2.1-1.3l1,0.6c-0.6,1-1.6,1.8-3.2,1.8
    c-2.5,0-3.7-1.8-3.7-4.1c0-2.3,1.2-4.2,3.6-4.2c2.3,0,3.4,1.9,3.4,4c0,0.2,0,0.4,0,0.4H420.5z M420.5,176.1h4.3
    c0-1.3-0.6-2.7-2.1-2.7C421.4,173.4,420.6,174.5,420.5,176.1z"/>
  <path fill="#FFFFFF" d="M427.7,178.6c0.5,0.7,1.4,1.2,2.4,1.2c0.9,0,1.7-0.4,1.7-1.3c0-2-4.4-1-4.4-3.8c0-1.6,1.4-2.2,2.8-2.2
    c1.1,0,2,0.3,2.8,1l-0.7,0.9c-0.5-0.5-1.3-0.9-2.1-0.9c-0.7,0-1.4,0.3-1.4,1.1c0,1.8,4.4,0.9,4.4,3.8c0,1.6-1.4,2.4-3,2.4
    c-1.3,0-2.4-0.4-3.2-1.3L427.7,178.6z"/>
  <path fill="#FFFFFF" d="M433.9,183.1c1.7-2,2.5-4.3,2.5-6.9c0-2.8-0.8-4.9-2.5-6.9l0.6-0.5c2.2,1.9,3.4,4.6,3.4,7.4
    c0,2.9-1.2,5.4-3.4,7.4L433.9,183.1z"/>
</g>
</svg>
